<svg width="361" height="507" viewBox="0 0 361 507" fill="none" xmlns="http://www.w3.org/2000/svg">
<path d="M151.6 330.238H208.24" stroke="white" stroke-width="6" stroke-linecap="round"/>
<path d="M66.6387 252.359C79.2253 261.013 111.007 273.127 137.439 252.359" stroke="white" stroke-width="6" stroke-linecap="round"/>
<path d="M220.039 250C232.626 258.653 264.407 270.768 290.839 250" stroke="white" stroke-width="6" stroke-linecap="round"/>
<path d="M303.358 54.9219H330.038C332.247 54.9219 334.038 56.7127 334.038 58.9219V480.442C334.038 482.651 332.247 484.442 330.038 484.442H31.2383C29.0291 484.442 27.2383 482.651 27.2383 480.442V58.9219C27.2383 56.7127 29.0291 54.9219 31.2383 54.9219H53.1983" stroke="white" stroke-width="6"/>
<path d="M305.719 36.0391L353.639 36.0391C355.848 36.0391 357.639 37.7794 357.639 39.9886C357.639 210.003 357.639 465.053 357.639 499.435C357.639 501.644 355.848 503.319 353.639 503.319H7.63869C5.42955 503.319 3.63869 501.528 3.63869 499.319V40.0391C3.63869 37.8299 5.42955 36.0391 7.63869 36.0391L50.8387 36.0391" stroke="white" stroke-width="6"/>
<path d="M54.8379 64.36H301.718C303.927 64.36 305.718 62.5691 305.718 60.36V26.6352C305.718 24.4261 303.927 22.6352 301.718 22.6352H219.406C217.197 22.6352 215.406 20.8443 215.406 18.6352V7C215.406 4.79086 213.615 3 211.406 3H141.136C138.927 3 137.136 4.79086 137.136 7V18.6352C137.136 20.8443 135.345 22.6352 133.136 22.6352H54.8379C52.6288 22.6352 50.8379 24.4261 50.8379 26.6352V60.36C50.8379 62.5691 52.6288 64.36 54.8379 64.36Z" stroke="white" stroke-width="6"/>
</svg>
