<?xml version="1.0" encoding="iso-8859-1"?>
<!-- Uploaded to: SVG Repo, www.svgrepo.com, Generator: SVG Repo Mixer Tools -->
<svg height="800px" width="800px" version="1.1" id="Capa_1" xmlns="http://www.w3.org/2000/svg" xmlns:xlink="http://www.w3.org/1999/xlink" 
	 viewBox="0 0 370.643 370.643" xml:space="preserve">
<g>
	<path style="fill:#4200FF;" d="M370.587,100.397c-0.252-2.146-1.349-4.097-3.048-5.43l-68.142-53.632
		c-3.52-2.788-8.641-2.162-11.413,1.357L171.339,190.835c-2.772,3.528-2.17,8.633,1.366,11.413c3.528,2.78,8.633,2.162,11.413-1.357
		L295.731,59.136l55.364,43.569l-131.09,166.051L185.8,310.342c-2.853,3.471-2.349,8.592,1.122,11.445
		c1.512,1.244,3.333,1.853,5.154,1.853c2.349,0,4.674-1.016,6.283-2.967l34.311-41.716l136.235-172.562
		C370.229,104.697,370.839,102.543,370.587,100.397z"/>
	<path style="fill:#4200FF;" d="M150.457,208.401c3.463,2.845,8.584,2.349,11.437-1.114c2.853-3.471,2.349-8.592-1.122-11.445
		l-92.414-76.01c-1.666-1.366-3.829-2.065-5.942-1.813c-2.154,0.203-4.121,1.26-5.495,2.926L1.85,187.909
		c-2.853,3.471-2.349,8.592,1.114,11.445L160.805,329.2c1.52,1.244,3.341,1.853,5.162,1.853c2.349,0,4.674-1.016,6.283-2.967
		c2.853-3.463,2.349-8.592-1.114-11.445L19.563,191.957l44.748-54.405L150.457,208.401z"/>
</g>
</svg>