<svg width="48" height="48" viewBox="0 0 48 48" fill="none" xmlns="http://www.w3.org/2000/svg">
<g id="Frame">
<g id="SVGRepo_iconCarrier">
<g id="Group">
<g id="Group_2">
<path id="Vector" d="M38.3281 27.6C38.2801 27.408 38.2801 27.168 38.4241 27.024C39.2401 25.536 39.7201 23.856 39.7201 22.08C39.7201 16.512 34.9681 12 29.1601 12C26.6641 12 24.3601 12.864 22.5361 14.256C28.5361 15.552 33.0001 20.736 33.0001 26.88C33.0001 28.608 32.6641 30.288 31.9921 31.776C32.9521 31.536 33.8641 31.152 34.7281 30.624C34.9201 30.528 35.1121 30.48 35.3041 30.576L38.3761 31.68C38.9041 31.872 39.4321 31.344 39.2881 30.768L38.3281 27.6Z" fill="black"/>
</g>
<g id="Group_3">
<path id="Vector_2" d="M19.56 16.8C13.752 16.8 9 21.312 9 26.88C9 28.656 9.48 30.336 10.344 31.824C10.44 32.016 10.488 32.208 10.44 32.4L9.432 35.616C9.24 36.192 9.768 36.72 10.344 36.528L13.416 35.424C13.608 35.376 13.848 35.376 13.992 35.472C15.624 36.432 17.496 36.96 19.56 36.96C25.368 36.96 30.12 32.448 30.12 26.88C30.12 21.312 25.368 16.8 19.56 16.8ZM13.8 28.8C12.744 28.8 11.88 27.936 11.88 26.88C11.88 25.824 12.744 24.96 13.8 24.96C14.856 24.96 15.72 25.824 15.72 26.88C15.72 27.936 14.856 28.8 13.8 28.8ZM19.56 28.8C18.504 28.8 17.64 27.936 17.64 26.88C17.64 25.824 18.504 24.96 19.56 24.96C20.616 24.96 21.48 25.824 21.48 26.88C21.48 27.936 20.616 28.8 19.56 28.8ZM25.32 28.8C24.264 28.8 23.4 27.936 23.4 26.88C23.4 25.824 24.264 24.96 25.32 24.96C26.376 24.96 27.24 25.824 27.24 26.88C27.24 27.936 26.376 28.8 25.32 28.8Z" fill="black"/>
</g>
</g>
</g>
</g>
</svg>
