<svg width="50" height="50" viewBox="0 0 50 50" fill="none" xmlns="http://www.w3.org/2000/svg">
<g id="&#208;&#157;&#208;&#176;&#209;&#129;&#209;&#130;&#209;&#128;&#208;&#190;&#208;&#185;&#208;&#186;&#208;&#176; &#208;&#191;&#209;&#128;&#208;&#190;&#209;&#132;&#208;&#184;&#208;&#187;&#209;&#143;">
<g id="Group">
<path id="Vector" d="M48.5907 21.0123L43.1859 19.7365C42.7922 18.3746 42.2587 17.0734 41.5867 15.8564L44.5018 11.1394C44.948 10.417 44.8389 9.48447 44.2393 8.88486L41.1152 5.76084C40.5167 5.1623 39.5842 5.05303 38.8617 5.49932L34.1457 8.41445C32.9287 7.74238 31.6276 7.20898 30.2656 6.81514L28.9898 1.40811C28.7945 0.583789 28.0572 0 27.21 0H22.7923C21.9448 0 21.2076 0.583789 21.0123 1.40811L19.7365 6.81514C18.3746 7.20889 17.0734 7.74131 15.8564 8.41445L11.1394 5.49727C10.418 5.05303 9.48447 5.16123 8.88486 5.76084L5.76074 8.88379C5.16211 9.4834 5.05293 10.4179 5.49814 11.1384L8.41436 15.8564C7.74229 17.0734 7.20889 18.3746 6.81602 19.7354L1.40801 21.0113C0.583789 21.2075 0 21.9438 0 22.7922V27.2088C0 28.0563 0.583789 28.7944 1.40811 28.9887L6.81611 30.2646C7.20986 31.6265 7.74238 32.9266 8.41445 34.1425L5.49727 38.8616C5.05303 39.5841 5.16123 40.5176 5.76084 41.1173L8.88379 44.2402C9.4834 44.8398 10.4179 44.9489 11.1384 44.5027L15.8574 41.5855C17.0745 42.2576 18.3756 42.791 19.7365 43.1838L21.0123 48.5906C21.2076 49.4171 21.9448 49.9999 22.7923 49.9999H27.21C28.0573 49.9999 28.7945 49.4171 28.9898 48.5906L30.2656 43.1838C31.6267 42.7911 32.9276 42.2576 34.1437 41.5855L38.8617 44.5017C39.5842 44.9479 40.5167 44.8388 41.1163 44.2392L44.2402 41.1151C44.8389 40.5166 44.948 39.5831 44.5018 38.8605L41.5856 34.1436C42.2588 32.9275 42.7912 31.6266 43.185 30.2646L48.5918 28.9887C49.4183 28.7933 50 28.0571 50 27.2088V22.791C50 21.9447 49.4172 21.2075 48.5907 21.0123ZM25.0006 29.5999C22.4613 29.5999 20.4012 27.5396 20.4012 24.9995C20.4012 22.4594 22.4614 20.3991 25.0006 20.3991C27.5407 20.3991 29.601 22.4594 29.601 24.9995C29.601 27.5396 27.5407 29.5999 25.0006 29.5999Z" fill="black"/>
</g>
</g>
</svg>
