<svg width="32" height="20" viewBox="0 0 32 20" fill="none" xmlns="http://www.w3.org/2000/svg">
<g id="SVGRepo_iconCarrier">
<g id="Page-1">
<g id="Dribbble-Light-Preview">
<g id="icons">
<path id="eyes-[#90]" fill-rule="evenodd" clip-rule="evenodd" d="M22.4063 16.05C20.7019 16.05 19.1607 15.368 18.0131 14.2766C19.588 11.4148 19.588 7.84534 18.0131 4.98359C18.6053 4.42023 19.3031 3.97059 20.0761 3.66563C18.3956 6.07155 19.3079 9.51437 21.9486 10.7711C24.5238 11.9973 27.6591 10.6249 28.5473 7.91719C29.6676 11.9426 26.5931 16.05 22.4063 16.05ZM25.6073 6.42031C25.6073 8.02534 22.4063 8.02534 22.4063 6.42031C22.4063 4.8153 25.6073 4.8153 25.6073 6.42031ZM13.996 14.2766C11.0992 17.0324 6.31061 16.4224 4.1852 13.0422C2.07741 9.68609 3.59622 5.11495 7.27246 3.66563C5.6368 6.00895 6.44983 9.34282 8.96255 10.675C11.5441 12.0441 14.833 10.6923 15.7437 7.91719C16.3806 10.2075 15.7213 12.6362 13.996 14.2766ZM11.2032 4.81484C12.8036 4.81484 12.8036 8.025 11.2032 8.025C9.60272 8.025 9.60272 4.81484 11.2032 4.81484ZM22.4063 0C19.9432 0 17.7042 0.937603 16.0045 2.46719C9.92441 -3.0011 0 1.48341 0 9.63047C0 17.7775 9.92441 22.2613 16.0045 16.793C21.0988 21.3753 29.4468 19.1061 31.545 12.5945C33.5183 6.47138 28.8162 0 22.4063 0Z" fill="black"/>
</g>
</g>
</g>
</g>
</svg>
