<svg width="35" height="35" viewBox="0 0 48 48" fill="none" xmlns="http://www.w3.org/2000/svg">
  <path d="M32 16V26C32 27.5913 32.6322 29.1174 33.7574 30.2427C34.8826 31.3679 36.4087 32 38 32C39.5913 32 41.1174 31.3679 42.2427 30.2427C43.3679 29.1174 44 27.5913 44 26V24C43.9997 19.4861 42.4725 15.105 39.6666 11.5691C36.8607 8.03318 32.9411 5.55046 28.5453 4.5246C24.1495 3.49875 19.5359 3.99009 15.4547 5.91874C11.3735 7.8474 8.06481 11.0999 6.06653 15.1475C4.06825 19.195 3.49795 23.7995 4.44835 28.2122C5.39876 32.625 7.81397 36.5865 11.3013 39.4525C14.7886 42.3186 19.1429 43.9207 23.6562 43.9983C28.1694 44.0759 32.5762 42.6245 36.16 39.88M32 24C32 28.4183 28.4183 32 24 32C19.5817 32 16 28.4183 16 24C16 19.5817 19.5817 16 24 16C28.4183 16 32 19.5817 32 24Z" stroke="#1E1E1E" stroke-width="4" stroke-linecap="round" stroke-linejoin="round" />
</svg>